<?xml version="1.0" standalone="no"?>
<!DOCTYPE svg PUBLIC "-//W3C//DTD SVG 20010904//EN"
 "http://www.w3.org/TR/2001/REC-SVG-20010904/DTD/svg10.dtd">
<svg version="1.0" xmlns="http://www.w3.org/2000/svg"
 width="512.000000pt" height="512.000000pt" viewBox="0 0 512.000000 512.000000"
 preserveAspectRatio="xMidYMid meet">

<g transform="translate(0.000000,512.000000) scale(0.100000,-0.100000)"
fill="#000000" stroke="none">
<path d="M3411 4976 c-18 -21 -29 -66 -56 -226 -32 -190 -45 -230 -95 -296
-47 -62 -153 -170 -251 -256 l-65 -57 -93 30 c-142 45 -303 70 -473 72 l-148
2 -11 55 c-34 167 -207 520 -254 520 -24 0 -42 -50 -64 -185 -34 -200 -48
-252 -85 -308 -53 -79 -240 -256 -343 -326 -180 -120 -309 -251 -409 -416
-107 -175 -161 -347 -171 -540 -15 -325 117 -612 360 -779 31 -21 54 -42 52
-46 -2 -4 -32 -24 -65 -44 l-61 -38 -49 21 c-96 42 -129 25 -300 -148 -120
-122 -400 -443 -400 -459 0 -23 21 -22 60 4 61 40 132 44 202 10 29 -14 61
-31 70 -38 14 -10 26 -9 64 5 26 9 48 16 49 15 2 -2 13 -23 25 -48 12 -25 42
-75 65 -111 30 -46 40 -71 34 -80 -5 -8 -14 -31 -19 -52 -9 -30 -7 -45 8 -80
22 -49 86 -110 138 -132 56 -23 148 -19 219 10 33 14 62 21 66 17 4 -4 14 -32
24 -62 21 -66 76 -170 117 -223 30 -37 30 -38 12 -58 -26 -29 -93 -65 -133
-73 -47 -9 -98 7 -171 55 -61 39 -62 41 -41 55 24 17 29 65 9 81 -7 6 -38 18
-68 28 -30 10 -88 33 -129 52 -139 63 -154 48 -117 -116 14 -66 26 -132 26
-148 0 -63 65 -90 101 -42 l18 24 28 -26 c48 -45 131 -97 191 -119 47 -18 73
-21 142 -18 102 5 175 34 244 98 28 26 52 40 61 37 16 -7 18 -15 35 -132 35
-237 122 -370 228 -350 92 17 151 77 260 264 6 11 30 11 151 1 90 -8 203 -11
302 -7 l157 6 28 -47 c125 -218 279 -282 369 -152 37 53 72 161 93 283 l17
104 62 67 c91 99 157 240 177 376 l7 46 64 -4 c55 -4 73 0 119 22 103 51 153
134 124 206 -14 34 -14 34 47 110 120 148 183 284 170 366 -6 43 -43 110 -100
179 l-33 41 50 53 51 52 26 -25 c44 -42 109 -66 184 -66 73 0 121 15 175 57
l35 26 19 -26 c20 -27 42 -33 66 -19 10 7 45 125 79 270 7 31 -15 55 -46 49
-33 -7 -242 -80 -258 -90 -25 -16 -15 -56 18 -76 l31 -19 -25 -16 c-63 -42
-139 -39 -193 7 l-26 23 113 123 c112 122 113 123 125 98 30 -57 87 -36 98 35
3 24 18 83 33 131 42 139 21 148 -177 79 l-115 -40 0 -34 c0 -25 6 -35 23 -43
12 -5 22 -14 22 -20 -1 -5 -50 -62 -110 -125 l-108 -115 -22 20 c-51 45 -64
127 -29 185 l21 34 15 -27 c12 -23 20 -28 45 -25 17 2 34 10 39 18 6 12 32
116 66 257 4 15 -2 26 -19 37 -23 15 -29 14 -99 -14 -41 -16 -100 -36 -132
-45 -63 -18 -85 -42 -67 -75 6 -11 14 -20 18 -20 4 0 13 -4 20 -9 11 -6 7 -20
-18 -64 -60 -107 -49 -230 31 -320 l41 -47 -42 -50 -42 -50 -51 46 c-29 25
-91 77 -139 116 l-88 70 39 46 c83 99 125 221 125 362 0 114 -13 161 -95 346
-59 135 -80 199 -118 368 -22 97 -77 222 -127 294 l-33 45 59 68 c69 80 145
191 185 269 83 161 8 494 -177 787 -45 71 -69 90 -87 69z m62 -68 c61 -93 166
-322 154 -335 -3 -2 -70 -16 -151 -32 -124 -24 -146 -26 -141 -13 3 9 21 105
41 215 19 110 37 203 40 208 10 18 23 8 57 -43z m-1432 -219 c22 -38 49 -90
60 -116 22 -49 59 -153 56 -153 -1 0 -58 -11 -127 -25 -136 -27 -164 -30 -156
-16 3 4 20 91 37 191 17 101 35 195 41 209 l10 26 20 -25 c10 -13 37 -54 59
-91z m491 -490 c95 -10 286 -53 351 -78 24 -9 27 -15 27 -58 0 -27 4 -63 9
-81 l10 -32 -370 0 -369 0 22 43 c16 31 23 65 26 130 l4 87 94 0 c51 0 140 -5
196 -11z m-700 -1306 c159 -72 117 -195 -80 -233 -164 -33 -362 36 -362 125 0
26 40 79 74 97 81 43 283 49 368 11z m1740 0 c155 -70 118 -192 -70 -232 -152
-32 -327 16 -362 99 -23 56 26 113 125 144 74 23 244 17 307 -11z m621 -149
c-3 -42 -60 -245 -68 -247 -5 -1 -19 12 -30 30 -11 18 -26 32 -32 33 -20 0
-64 -75 -70 -118 -3 -22 0 -57 7 -77 12 -36 74 -115 91 -115 13 0 259 269 259
283 0 8 -16 21 -37 31 -30 14 -34 19 -22 30 8 8 43 22 79 33 36 11 89 30 118
42 66 27 71 18 43 -76 -12 -37 -27 -92 -34 -122 -6 -30 -18 -56 -24 -59 -7 -2
-20 13 -30 32 -9 20 -20 36 -24 36 -16 0 -260 -272 -257 -287 2 -9 20 -30 41
-46 65 -53 172 -48 240 11 25 22 21 50 -8 58 -13 3 -29 12 -35 19 -14 17 -3
24 85 51 39 12 91 30 117 40 26 10 50 15 54 11 3 -3 -5 -48 -19 -99 -14 -51
-28 -110 -32 -130 -8 -48 -27 -49 -54 -2 l-21 36 -41 -37 c-55 -50 -102 -68
-174 -68 -69 0 -117 17 -167 62 -43 37 -60 39 -85 7 -10 -13 -127 -141 -260
-284 l-242 -261 -12 39 -12 38 184 199 c101 109 215 234 253 276 l69 78 -41
42 c-99 101 -109 235 -27 343 14 18 25 37 25 41 0 5 -16 17 -36 26 -19 10 -34
22 -32 28 2 6 50 26 106 45 56 18 110 38 120 43 23 14 37 8 35 -15z m-3353
-812 c0 -11 -47 -59 -112 -117 -112 -97 -103 -83 42 68 35 37 66 67 67 67 2 0
3 -8 3 -18z m88 -304 l-3 -83 -23 60 c-13 33 -26 85 -29 115 -4 48 -1 60 24
98 l28 43 3 -75 c2 -41 2 -112 0 -158z m2668 130 c6 -9 -53 -78 -65 -78 -4 0
-16 28 -28 63 -12 34 -25 70 -29 80 -5 13 9 8 55 -19 34 -20 64 -41 67 -46z
m-2577 -862 l64 -33 -39 -6 c-21 -4 -53 -9 -71 -13 -30 -6 -32 -4 -42 32 -6
22 -11 42 -11 47 0 15 37 5 99 -27z"/>
</g>
</svg>
